<svg width="19" height="17" viewBox="0 0 19 17" fill="none" xmlns="http://www.w3.org/2000/svg">
<path d="M11.0663 8.5L18.9427 0.341565C19.0748 0.205982 18.9638 0 18.7597 0H16.3653C16.2242 0 16.0892 0.0547545 15.9962 0.14862L9.5 6.87822L3.0038 0.14862C2.91378 0.0547545 2.77875 0 2.63473 0H0.240285C0.0362472 0 -0.0747736 0.205982 0.0572509 0.341565L7.93371 8.5L0.0572509 16.6584C0.0276762 16.6887 0.00870292 16.7256 0.00258288 16.7649C-0.00353715 16.8042 0.00345313 16.8443 0.0227246 16.8802C0.041996 16.9162 0.0727391 16.9466 0.111303 16.9678C0.149867 16.989 0.194633 17.0002 0.240285 17H2.63473C2.77575 17 2.91078 16.9452 3.0038 16.8514L9.5 10.1218L15.9962 16.8514C16.0862 16.9452 16.2212 17 16.3653 17H18.7597C18.9638 17 19.0748 16.794 18.9427 16.6584L11.0663 8.5Z" fill="#545454" fill-opacity="0.85"/>
</svg>
