<svg width="30" height="37" viewBox="0 0 30 37" fill="none" xmlns="http://www.w3.org/2000/svg">
<path d="M29.5994 9.27478L20.429 0.38817C20.1733 0.140402 19.8281 0 19.4659 0H1.36364C0.609375 0 0 0.590513 0 1.32143V35.6786C0 36.4095 0.609375 37 1.36364 37H28.6364C29.3906 37 30 36.4095 30 35.6786V10.2122C30 9.86116 29.8551 9.52254 29.5994 9.27478ZM26.8551 10.8192H18.8352V3.04754L26.8551 10.8192ZM26.9318 34.0268H3.06818V2.97321H15.9375V11.8929C15.9375 12.3528 16.1261 12.794 16.4617 13.1192C16.7974 13.4445 17.2526 13.6272 17.7273 13.6272H26.9318V34.0268ZM16.3636 16.8482C16.3636 16.6665 16.2102 16.5179 16.0227 16.5179H13.9773C13.7898 16.5179 13.6364 16.6665 13.6364 16.8482V21.308H9.03409C8.84659 21.308 8.69318 21.4567 8.69318 21.6384V23.6205C8.69318 23.8022 8.84659 23.9509 9.03409 23.9509H13.6364V28.4107C13.6364 28.5924 13.7898 28.7411 13.9773 28.7411H16.0227C16.2102 28.7411 16.3636 28.5924 16.3636 28.4107V23.9509H20.9659C21.1534 23.9509 21.3068 23.8022 21.3068 23.6205V21.6384C21.3068 21.4567 21.1534 21.308 20.9659 21.308H16.3636V16.8482Z" fill="#4F4F4F" fill-opacity="0.85"/>
</svg>
