<svg width="40" height="40" viewBox="0 0 40 40" fill="none" xmlns="http://www.w3.org/2000/svg">
<path d="M19.9998 5C20.4246 5.00047 20.8332 5.16313 21.1421 5.45475C21.451 5.74636 21.6369 6.14492 21.6618 6.56899C21.6867 6.99306 21.5487 7.41063 21.2761 7.73639C21.0034 8.06214 20.6167 8.27149 20.1948 8.32167L19.9998 8.33333H11.6665C11.2583 8.33339 10.8643 8.48326 10.5592 8.75453C10.2542 9.02579 10.0593 9.39958 10.0115 9.805L9.99984 10V30C9.99989 30.4082 10.1498 30.8022 10.421 31.1073C10.6923 31.4123 11.0661 31.6072 11.4715 31.655L11.6665 31.6667H19.1665C19.5913 31.6671 19.9999 31.8298 20.3088 32.1214C20.6177 32.413 20.8036 32.8116 20.8285 33.2357C20.8534 33.6597 20.7154 34.0773 20.4427 34.4031C20.1701 34.7288 19.7833 34.9382 19.3615 34.9883L19.1665 35H11.6665C10.3912 35.0001 9.16398 34.5128 8.23607 33.6379C7.30816 32.7629 6.74966 31.5665 6.67484 30.2933L6.6665 30V10C6.66643 8.72465 7.15371 7.49748 8.02864 6.56957C8.90357 5.64166 10.1 5.08315 11.3732 5.00833L11.6665 5H19.9998ZM29.5115 14.1067L34.2248 18.8217C34.5373 19.1342 34.7128 19.5581 34.7128 20C34.7128 20.4419 34.5373 20.8658 34.2248 21.1783L29.5115 25.8933C29.1988 26.2058 28.7747 26.3813 28.3326 26.3812C27.8905 26.381 27.4665 26.2052 27.154 25.8925C26.8415 25.5798 26.666 25.1557 26.6662 24.7136C26.6663 24.2715 26.8421 23.8475 27.1548 23.535L29.0232 21.6667H19.9998C19.5578 21.6667 19.1339 21.4911 18.8213 21.1785C18.5088 20.8659 18.3332 20.442 18.3332 20C18.3332 19.558 18.5088 19.134 18.8213 18.8215C19.1339 18.5089 19.5578 18.3333 19.9998 18.3333H29.0232L27.1548 16.465C26.8421 16.1525 26.6663 15.7285 26.6662 15.2864C26.666 14.8443 26.8415 14.4202 27.154 14.1075C27.4665 13.7948 27.8905 13.619 28.3326 13.6188C28.7747 13.6187 29.1988 13.7942 29.5115 14.1067Z" fill="#E40000"/>
</svg>
