<svg width="34" height="34" viewBox="0 0 34 34" fill="none" xmlns="http://www.w3.org/2000/svg">
<path d="M26.0157 6.56766C28.3565 8.90818 29.6953 12.0673 29.749 15.3771C29.8027 18.6868 28.567 21.8877 26.3033 24.3029L26.0157 24.6004L20.0048 30.6099C19.2421 31.3721 18.2182 31.8159 17.1405 31.8514C16.0629 31.887 15.012 31.5115 14.2007 30.8012L13.9967 30.6099L7.98441 24.599C5.59331 22.2079 4.25 18.9649 4.25 15.5833C4.25 12.2018 5.59331 8.95877 7.98441 6.56766C10.3755 4.17656 13.6185 2.83325 17.0001 2.83325C20.3816 2.83325 23.6246 4.17656 26.0157 6.56766ZM17.0001 11.3333C16.442 11.3333 15.8893 11.4433 15.3737 11.6568C14.858 11.8704 14.3895 12.1835 13.9949 12.5781C13.6002 12.9728 13.2872 13.4413 13.0736 13.9569C12.86 14.4726 12.7501 15.0252 12.7501 15.5833C12.7501 16.1414 12.86 16.6941 13.0736 17.2097C13.2872 17.7254 13.6002 18.1939 13.9949 18.5885C14.3895 18.9832 14.858 19.2962 15.3737 19.5098C15.8893 19.7234 16.442 19.8333 17.0001 19.8333C18.1272 19.8333 19.2083 19.3856 20.0053 18.5885C20.8023 17.7915 21.2501 16.7105 21.2501 15.5833C21.2501 14.4562 20.8023 13.3752 20.0053 12.5781C19.2083 11.7811 18.1272 11.3333 17.0001 11.3333Z" fill="#2D2D2D"/>
</svg>
