<svg width="36" height="36" viewBox="0 0 36 36" fill="none" xmlns="http://www.w3.org/2000/svg">
<path d="M33.3202 9.21772L26.7872 2.68469C26.4859 2.38335 26.1162 2.16237 25.7144 2.04183V1.93335H3.21443C2.50326 1.93335 1.92871 2.5079 1.92871 3.21906V32.7905C1.92871 33.5017 2.50326 34.0762 3.21443 34.0762H32.7859C33.497 34.0762 34.0716 33.5017 34.0716 32.7905V11.0338C34.0716 10.3508 33.8024 9.69987 33.3202 9.21772ZM12.8573 4.82621H23.143V9.00478H12.8573V4.82621ZM31.1787 31.1834H4.82157V4.82621H10.2859V10.2905C10.2859 11.0017 10.8604 11.5762 11.5716 11.5762H24.4287C25.1399 11.5762 25.7144 11.0017 25.7144 10.2905V5.7021L31.1787 11.1664V31.1834ZM18.0001 15.1923C14.8059 15.1923 12.2144 17.7838 12.2144 20.978C12.2144 24.1722 14.8059 26.7637 18.0001 26.7637C21.1943 26.7637 23.7859 24.1722 23.7859 20.978C23.7859 17.7838 21.1943 15.1923 18.0001 15.1923ZM18.0001 24.1923C16.2242 24.1923 14.7859 22.7539 14.7859 20.978C14.7859 19.2021 16.2242 17.7637 18.0001 17.7637C19.776 17.7637 21.2144 19.2021 21.2144 20.978C21.2144 22.7539 19.776 24.1923 18.0001 24.1923Z" fill="#575757" fill-opacity="0.85"/>
</svg>
