<svg width="35" height="36" viewBox="0 0 35 36" fill="none" xmlns="http://www.w3.org/2000/svg">
<path fill-rule="evenodd" clip-rule="evenodd" d="M8.1818 8.50243C7.29421 9.37822 6.58862 10.4209 6.10566 11.5705C5.62269 12.7201 5.37191 13.9539 5.36773 15.2008C5.36355 16.4477 5.60607 17.6832 6.08132 18.836C6.55656 19.9888 7.25515 21.0362 8.13686 21.9179C9.01857 22.7996 10.066 23.4982 11.2188 23.9734C12.3716 24.4487 13.607 24.6912 14.8539 24.687C16.1009 24.6828 17.3346 24.432 18.4842 23.9491C19.6338 23.4661 20.6765 22.7605 21.5523 21.8729C23.3058 20.0958 24.2852 17.6973 24.2768 15.2008C24.2684 12.7043 23.273 10.3124 21.5077 8.54708C19.7423 6.78176 17.3505 5.78631 14.8539 5.77795C12.3574 5.76958 9.95891 6.74898 8.1818 8.50243ZM19.1216 19.4423C18.5629 20.001 17.8996 20.4442 17.1696 20.7465C16.4396 21.0489 15.6572 21.2045 14.8671 21.2045C14.0769 21.2045 13.2945 21.0489 12.5645 20.7465C11.8345 20.4442 11.1712 20.001 10.6125 19.4423C10.0538 18.8835 9.61058 18.2202 9.3082 17.4902C9.00582 16.7602 8.85019 15.9778 8.85019 15.1877C8.85019 14.3975 9.00582 13.6151 9.3082 12.8851C9.61058 12.1551 10.0538 11.4918 10.6125 10.9331C11.7409 9.80474 13.2713 9.17082 14.8671 9.17082C16.4628 9.17082 17.9932 9.80474 19.1216 10.9331C20.25 12.0615 20.8839 13.5919 20.8839 15.1877C20.8839 16.7835 20.25 18.3139 19.1216 19.4423Z" fill="#2D2D2D"/>
<path d="M19.7286 23.6968C19.4891 23.4573 19.2991 23.1729 19.1695 22.86C19.0399 22.5471 18.9731 22.2117 18.9731 21.8729C18.9731 21.5342 19.0399 21.1988 19.1695 20.8859C19.2991 20.5729 19.4891 20.2886 19.7286 20.0491C19.9681 19.8095 20.2525 19.6195 20.5654 19.4899C20.8784 19.3603 21.2138 19.2936 21.5525 19.2936C21.8912 19.2936 22.2266 19.3603 22.5396 19.4899C22.8525 19.6195 23.1369 19.8095 23.3764 20.0491L29.4531 26.1275C29.6994 26.3654 29.8958 26.6499 30.0309 26.9645C30.1661 27.2791 30.2372 27.6174 30.2402 27.9598C30.2432 28.3022 30.1779 28.6417 30.0483 28.9586C29.9186 29.2755 29.7272 29.5634 29.4851 29.8055C29.2429 30.0476 28.955 30.2391 28.6382 30.3687C28.3213 30.4984 27.9817 30.5636 27.6394 30.5606C27.297 30.5576 26.9586 30.4865 26.644 30.3514C26.3294 30.2162 26.0449 30.0198 25.8071 29.7735L19.7286 23.6968Z" fill="#2D2D2D"/>
</svg>
